<svg xmlns="http://www.w3.org/2000/svg" width="195" height="19" viewBox="0 0 195 19">
<title>Office for National Statistics</title>
<path fill="#222222" d="M77,8c0.2,0,0.5,0,0.6,0l-0.3,0.9C76.6,8.7,75.5,8.7,75,9v7.1h-1.2V8.5C74.7,8.2,75.5,8,77,8z M87.8,12.5 c0,0.6,0.1,1.2,0.1,1.2h0c0,0-0.2-0.5-0.6-1.1L83,6h-1.7v10.2h1.5l0-6.9c0-0.6,0-1.1,0-1.1h0c0,0,0.2,0.5,0.6,1l4.5,7h1.5V6h-1.5 V12.5z M101.4,6l-1.7,0.5v1.8h-1.1v1h1.1v5c0,1.1,0.6,2.2,2.3,2.2c0.4,0,0.8-0.1,0.9-0.2v-1.1c-0.2,0-0.3,0.1-0.5,0.1 c-0.7,0-1.1-0.5-1.1-1.1V9.3h1.6v-1h-1.6V6z M72.3,12.2c0,2.4-1.1,4.2-3.4,4.2c-2.4,0-3.4-1.8-3.4-4.2c0-2.4,1.1-4.2,3.4-4.2 C71.2,8,72.3,9.8,72.3,12.2z M71.1,12.2c0-1.6-0.5-3.4-2.3-3.4c-1.7,0-2.3,1.8-2.3,3.4c0,1.6,0.5,3.3,2.3,3.3 C70.6,15.5,71.1,13.8,71.1,12.2z M97.3,10.8v5.1c-0.7,0.3-1.8,0.6-3.1,0.6c-2.3,0-3.5-0.9-3.5-2.5c0-2.2,2.3-2.7,4.9-3v-0.5 c0-1.1-0.7-1.4-1.8-1.4c-0.8,0-1.7,0.2-2.2,0.5l-0.4-1C91.9,8.4,92.9,8,94.2,8C96,8,97.3,8.8,97.3,10.8z M95.7,11.8 c-2,0.2-3.3,0.6-3.3,2.1c0,1.1,0.8,1.5,2,1.5c0.6,0,1-0.1,1.3-0.3V11.8z M32.7,7v1.2h-1.2v0.7h1.2v7.3h1.2V8.9h1.7V8.2h-1.7V6.9 c0-1.1,0.7-1.6,1.5-1.6h0.1V4.5c0,0-0.2,0-0.3,0C33.5,4.5,32.7,5.5,32.7,7z M37.5,7v1.2h-1.2v0.7h1.2v7.3h1.2V8.9h1.7V8.2h-1.7V6.9 c0-1.1,0.7-1.6,1.5-1.6h0.1V4.5c0,0-0.2,0-0.3,0C38.3,4.5,37.5,5.5,37.5,7z M61.8,7v1.2h-1.2v0.7h1.2v7.3H63V8.9h1.7V8.2H63V6.9 c0-1.1,0.7-1.6,1.5-1.6h0.1V4.5c0,0-0.2,0-0.3,0C62.7,4.5,61.8,5.5,61.8,7z M30.3,11.1c0,2.9-1.3,5.3-4.1,5.3 c-2.9,0-4.2-2.4-4.2-5.3c0-2.9,1.3-5.3,4.2-5.3C29,5.8,30.3,8.2,30.3,11.1z M29,11c0-2.1-0.7-4.4-2.9-4.4c-2.1,0-2.9,2.3-2.9,4.4 c0,2.1,0.7,4.4,2.9,4.4C28.3,15.4,29,13.1,29,11z M104.2,16.2h1.7v-8h-1.7V16.2z M48.1,8.8c0.6,0,1.1,0.2,1.4,0.4l0.3-0.7 c-0.3-0.3-1-0.5-2-0.5c-1.9,0-3.4,1.6-3.4,4.2c0,2.6,1.5,4.2,3.4,4.2c1,0,1.7-0.3,2-0.5L49.5,15c-0.3,0.2-0.8,0.4-1.4,0.4 c-1.5,0-2.4-1.4-2.4-3.4C45.6,10.2,46.5,8.8,48.1,8.8z M42.2,5.2c-0.4,0-0.7,0.3-0.7,0.7c0,0.4,0.3,0.7,0.7,0.7 c0.4,0,0.7-0.3,0.7-0.7C42.9,5.5,42.6,5.2,42.2,5.2z M41.6,16.2h1.2v-8h-1.2V16.2z M57.3,11.9l-5.6,0.8c0.1,1.9,1.2,2.8,2.8,2.8 c1,0,1.7-0.3,2.2-0.5l0.3,0.8c-0.5,0.3-1.4,0.5-2.6,0.5c-2.3,0-3.8-1.3-3.8-4.2C50.6,9.4,52,8,54,8C56.1,8,57.3,9.2,57.3,11.9z M56.2,11.4c0-1.9-0.9-2.6-2.2-2.6c-1.3,0-2.4,1-2.4,3.3L56.2,11.4z M176.5,6l-1.7,0.5v1.8h-1.1v1h1.1v5c0,1.1,0.6,2.2,2.3,2.2 c0.4,0,0.8-0.1,0.9-0.2v-1.1c-0.2,0-0.3,0.1-0.5,0.1c-0.7,0-1.1-0.5-1.1-1.1V9.3h1.6v-1h-1.6V6z M169.2,10.3c0-0.6,0.5-1.1,1.4-1.1 c0.7,0,1.2,0.3,1.5,0.5l0.4-1C172,8.3,171.3,8,170.3,8c-1.7,0-2.8,1.2-2.8,2.3c0,2.6,3.5,1.7,3.5,3.6c0,0.7-0.7,1.2-1.6,1.2 c-0.7,0-1.4-0.2-1.7-0.5l-0.5,1.1c0.5,0.3,1.4,0.6,2.4,0.6c1.9,0,3.1-1.2,3.1-2.5C172.8,11.3,169.2,12.1,169.2,10.3z M165.1,5.1 c-0.5,0-1,0.4-1,0.9c0,0.5,0.4,0.9,1,0.9c0.5,0,1-0.4,1-0.9C166.1,5.5,165.6,5.1,165.1,5.1z M179.4,16.2h1.7v-8h-1.7V16.2z M164.2,16.2h1.7v-8h-1.7V16.2z M191,10.3c0-0.6,0.5-1.1,1.4-1.1c0.7,0,1.2,0.3,1.5,0.5l0.4-1c-0.5-0.3-1.3-0.6-2.3-0.6 c-1.7,0-2.8,1.2-2.8,2.3c0,2.6,3.5,1.7,3.5,3.6c0,0.7-0.7,1.2-1.6,1.2c-0.7,0-1.4-0.2-1.7-0.5l-0.5,1.1c0.5,0.3,1.4,0.6,2.4,0.6 c1.9,0,3.1-1.2,3.1-2.5C194.6,11.3,191,12.1,191,10.3z M180.3,5.1c-0.5,0-1,0.4-1,0.9c0,0.5,0.4,0.9,1,0.9c0.5,0,1-0.4,1-0.9 C181.3,5.5,180.8,5.1,180.3,5.1z M186.5,15.2c-1.3,0-2.1-1.2-2.1-3c0-1.8,0.7-3,2.1-3c0.6,0,1,0.2,1.3,0.4l0.4-1 c-0.4-0.3-1.1-0.6-2-0.6c-1.9,0-3.5,1.6-3.5,4.2c0,2.6,1.5,4.2,3.5,4.2c1,0,1.7-0.3,2.1-0.6l-0.4-1.1C187.4,15,187,15.2,186.5,15.2z M105.1,5.1c-0.5,0-1,0.4-1,0.9c0,0.5,0.4,0.9,1,0.9c0.5,0,1-0.4,1-0.9C106.1,5.5,105.7,5.1,105.1,5.1z M132.5,16.2h1.7V4.6h-1.7 V16.2z M119.3,8c-1.3,0-2.4,0.3-3.2,0.6v7.6h1.7V9.3c0.3-0.1,0.8-0.2,1.4-0.2c1,0,1.9,0.4,1.9,1.4v5.7h1.7v-5.7 C122.8,8.7,121.4,8,119.3,8z M161.3,6l-1.7,0.5v1.8h-1.1v1h1.1v5c0,1.1,0.6,2.2,2.3,2.2c0.4,0,0.8-0.1,0.9-0.2v-1.1 c-0.2,0-0.3,0.1-0.5,0.1c-0.7,0-1.1-0.5-1.1-1.1V9.3h1.6v-1h-1.6V6z M114.8,12.2c0,2.4-1.2,4.2-3.6,4.2c-2.4,0-3.7-1.8-3.7-4.2 c0-2.4,1.2-4.2,3.7-4.2C113.5,8,114.8,9.9,114.8,12.2z M113,12.2c0-1.6-0.4-3.1-1.9-3.1c-1.5,0-1.9,1.5-1.9,3.1c0,1.6,0.5,3,1.9,3 C112.6,15.3,113,13.8,113,12.2z M130.7,10.8v5.1c-0.7,0.3-1.8,0.6-3.1,0.6c-2.4,0-3.5-0.9-3.5-2.5c0-2.2,2.3-2.7,4.9-3v-0.5 c0-1.1-0.7-1.4-1.8-1.4c-0.8,0-1.7,0.2-2.2,0.5l-0.4-1c0.6-0.2,1.6-0.6,2.9-0.6C129.4,8,130.7,8.8,130.7,10.8z M129.1,11.8 c-2,0.2-3.3,0.6-3.3,2.1c0,1.1,0.8,1.5,2,1.5c0.6,0,1-0.1,1.3-0.3V11.8z M157.3,10.8v5.1c-0.7,0.3-1.8,0.6-3.1,0.6 c-2.3,0-3.5-0.9-3.5-2.5c0-2.2,2.3-2.7,4.9-3v-0.5c0-1.1-0.8-1.4-1.8-1.4c-0.8,0-1.7,0.2-2.2,0.5l-0.4-1c0.6-0.2,1.6-0.6,2.9-0.6 C155.9,8,157.3,8.8,157.3,10.8z M155.7,11.8c-2,0.2-3.3,0.6-3.3,2.1c0,1.1,0.8,1.5,2,1.5c0.6,0,1-0.1,1.3-0.3V11.8z M140.2,8.7 c0-1,0.7-1.6,1.8-1.6c0.7,0,1.4,0.3,1.8,0.5l0.4-1.1c-0.5-0.3-1.4-0.6-2.5-0.6c-2.1,0-3.4,1.4-3.4,3c0,3.2,4.2,2.3,4.2,4.6 c0,1-0.8,1.7-2,1.7c-0.8,0-1.6-0.3-2-0.5l-0.5,1.2c0.6,0.3,1.6,0.6,2.8,0.6c2.1,0,3.6-1.4,3.6-3.2C144.5,9.9,140.2,10.8,140.2,8.7z M148.3,6l-1.7,0.5v1.8h-1.1v1h1.1v5c0,1.1,0.6,2.2,2.3,2.2c0.4,0,0.8-0.1,0.9-0.2v-1.1c-0.2,0-0.3,0.1-0.5,0.1 c-0.7,0-1.1-0.5-1.1-1.1V9.3h1.6v-1h-1.6V6z M3.1,13.5C2.5,12.8,2,12,1.5,11.2c-0.6,1.1-1.1,2.3-1.5,3.5V18l9.9,0 C6.8,17,4.9,15.6,3.1,13.5z M5.2,6.4C3.8,7.6,3,8.6,2,10.2c2.1,4,6.3,7.4,12.8,7.8l0.1,0c0,0,2,0.1,2-2.2V2.1c0,0-0.1,0-0.1,0 C11.5,2.6,7.9,4.1,5.2,6.4z M4.3,5.2C6.9,3,9.9,1.7,14.6,1H1.6C1.6,1,0,1,0,3c0,0.1,0-0.2,0,0.3c0.2,1.8,0.7,3.7,1.3,5.3 C2.2,7.2,3,6.3,4.3,5.2z M0.7,9.5C0.4,8.7,0.2,8.3,0,7.4c0,1.4,0,2.4,0,3.5C0.3,10.4,0.4,10,0.7,9.5z"/>
</svg>